# xmcd
#
# Track frame offsets:
#	150
#	15118
#	33109
#	49100
#	61111
#	78886
#	92868
#	108979
#	126961
#	142317
#
# Disc length: 2178 seconds
#
# Revision: 0
# Processed by: cddbd v1.5.2PL0 Copyright (c) Steve Scherf et al.
# Submitted via: EasyCDDAExtractor 10.2.0.1
#
DISCID=7708800a
DTITLE=Quim Barreiros - A Padaria
DYEAR=1900
DGENRE=
TTITLE0=A padaria
TTITLE1=É por isso que eu bebo
TTITLE2=O tocador
TTITLE3=Carro e mulher
TTITLE4=Fica amor tá cedo
TTITLE5=Fala com ele (Fale com seu irmão)
TTITLE6=O Zé do pau
TTITLE7=De olho na calcinha
TTITLE8=Só pensa em namorar (O xote das meninas)
TTITLE9=Tiras-me do sério (Me tira do sério)
EXTD=
EXTT0=
EXTT1=
EXTT2=
EXTT3=
EXTT4=
EXTT5=
EXTT6=
EXTT7=
EXTT8=
EXTT9=
PLAYORDER=
